<svg width="25" height="29" viewBox="0 0 25 29" fill="none" xmlns="http://www.w3.org/2000/svg">
<path d="M10.4078 16.3467C10.4078 17.4234 9.62677 17.7638 8.66717 17.7638H6.151V14.8124H8.71738C9.75509 14.818 10.4078 15.2476 10.4078 16.3467ZM9.97825 11.7551C9.97825 10.7676 9.21392 10.5333 8.3659 10.5333H6.15658V13.0327H8.53885C9.38129 13.0327 9.97825 12.6645 9.97825 11.7551ZM17.3594 13.0494C16.3384 13.0494 15.6578 13.6855 15.5908 14.7064H19.061C18.9662 13.6743 18.4306 13.0494 17.3594 13.0494ZM24.9971 4.46324V24.1016C24.9971 25.5801 23.7976 26.7796 22.3192 26.7796H2.68081C1.20236 26.7796 0.00285339 25.5801 0.00285339 24.1016V4.46324C0.00285339 2.98478 1.20236 1.78528 2.68081 1.78528H22.3192C23.7976 1.78528 24.9971 2.98478 24.9971 4.46324ZM15.1612 10.3213H19.5017V9.26683H15.1612V10.3213ZM12.7622 16.475C12.7622 15.1304 12.1262 13.97 10.8095 13.5962C11.7691 13.1387 12.2713 12.6087 12.2713 11.5319C12.2713 9.40072 10.6812 8.88187 8.8457 8.88187H3.79663V19.5937H8.99076C10.9379 19.5826 12.7622 18.6508 12.7622 16.475ZM21.2034 15.6493C21.2034 13.3563 19.8588 11.4427 17.4319 11.4427C15.0664 11.4427 13.4652 13.2168 13.4652 15.5489C13.4652 17.9646 14.9883 19.6216 17.4319 19.6216C19.2842 19.6216 20.4837 18.7903 21.0639 17.0106H19.1837C18.9773 17.6745 18.146 18.0204 17.4989 18.0204C16.2491 18.0204 15.5964 17.2895 15.5964 16.051H21.1866C21.1922 15.9227 21.2034 15.7832 21.2034 15.6493Z" fill="#2F80ED"/>
</svg>
