<svg width="106" height="106" viewBox="0 0 106 106" fill="none" xmlns="http://www.w3.org/2000/svg">
<path d="M29.34 72.77H31.25V79H32.16V72.77H34.06V72.03H29.34V72.77ZM37.5102 74.2C38.4502 74.2 39.2502 74.79 39.2402 75.86H35.7802C35.8802 74.79 36.6202 74.2 37.5102 74.2ZM40.0702 77.31H39.0902C38.8902 77.9 38.3702 78.32 37.5502 78.32C36.6202 78.32 35.8402 77.71 35.7702 76.6H40.1502C40.1702 76.41 40.1802 76.25 40.1802 76.05C40.1802 74.55 39.1402 73.43 37.5502 73.43C35.9502 73.43 34.8402 74.52 34.8402 76.25C34.8402 77.99 35.9902 79.09 37.5502 79.09C38.9102 79.09 39.7902 78.31 40.0702 77.31ZM41.0413 76.24C41.0413 77.94 42.1713 79.09 43.6313 79.09C44.6413 79.09 45.3513 78.57 45.6813 77.98V79H46.6013V73.52H45.6813V74.52C45.3613 73.95 44.6613 73.43 43.6413 73.43C42.1713 73.43 41.0413 74.53 41.0413 76.24ZM45.6813 76.25C45.6813 77.54 44.8213 78.29 43.8213 78.29C42.8213 78.29 41.9713 77.53 41.9713 76.24C41.9713 74.95 42.8213 74.22 43.8213 74.22C44.8213 74.22 45.6813 74.98 45.6813 76.25ZM47.7991 76.25C47.7991 77.99 48.9091 79.09 50.4691 79.09C51.8291 79.09 52.7191 78.33 52.9991 77.24H52.0191C51.8191 77.93 51.2791 78.32 50.4691 78.32C49.4691 78.32 48.7291 77.61 48.7291 76.25C48.7291 74.91 49.4691 74.2 50.4691 74.2C51.2791 74.2 51.8291 74.62 52.0191 75.28H52.9991C52.7191 74.13 51.8291 73.43 50.4691 73.43C48.9091 73.43 47.7991 74.53 47.7991 76.25ZM54.2134 79H55.1234V75.97C55.1234 74.79 55.7634 74.21 56.6934 74.21C57.6134 74.21 58.2234 74.78 58.2234 75.9V79H59.1234V75.77C59.1234 74.2 58.1534 73.42 56.9334 73.42C56.1634 73.42 55.4834 73.73 55.1234 74.31V71.6H54.2134V79ZM60.6098 79H61.5198V73.52H60.6098V79ZM61.0798 72.63C61.4098 72.63 61.6798 72.36 61.6798 72.01C61.6798 71.66 61.4098 71.39 61.0798 71.39C60.7298 71.39 60.4598 71.66 60.4598 72.01C60.4598 72.36 60.7298 72.63 61.0798 72.63ZM67.0808 79H67.9808V75.77C67.9808 74.2 67.0108 73.42 65.7408 73.42C65.0008 73.42 64.3408 73.73 63.9808 74.3V73.52H63.0708V79H63.9808V75.97C63.9808 74.79 64.6208 74.21 65.5508 74.21C66.4708 74.21 67.0808 74.78 67.0808 75.9V79ZM69.1273 76.24C69.1273 77.94 70.2573 79.09 71.7273 79.09C72.7273 79.09 73.4373 78.56 73.7673 77.97V79.12C73.7673 80.29 73.0373 80.91 72.0673 80.91C71.1673 80.91 70.5173 80.46 70.3173 79.8H69.4173C69.5973 80.97 70.6273 81.7 72.0673 81.7C73.6773 81.7 74.6873 80.63 74.6873 79.12V73.52H73.7673V74.52C73.4473 73.93 72.7273 73.43 71.7273 73.43C70.2573 73.43 69.1273 74.53 69.1273 76.24ZM73.7673 76.25C73.7673 77.54 72.9073 78.29 71.9073 78.29C70.9073 78.29 70.0573 77.53 70.0573 76.24C70.0573 74.95 70.9073 74.22 71.9073 74.22C72.9073 74.22 73.7673 74.98 73.7673 76.25Z" fill="#4F4F4F"/>
<path d="M66.3333 51.3333C67.2174 51.3333 68.0652 50.9821 68.6904 50.357C69.3155 49.7319 69.6667 48.884 69.6667 48V29.6666C69.6667 28.7826 69.3155 27.9347 68.6904 27.3096C68.0652 26.6845 67.2174 26.3333 66.3333 26.3333H48.7667C49.35 27.35 49.6667 28.5 49.6667 29.6666H66.3333V48H51.3333V51.3333H66.3333ZM58 34.6666V38H48V59.6666H44.6667V49.6666H41.3333V59.6666H38V46.3333H35.5V38C35.5 37.1159 35.8512 36.2681 36.4763 35.643C37.1014 35.0178 37.9493 34.6666 38.8333 34.6666H58ZM46.3333 29.6666C46.3333 30.5507 45.9821 31.3985 45.357 32.0237C44.7319 32.6488 43.8841 33 43 33C42.1159 33 41.2681 32.6488 40.643 32.0237C40.0179 31.3985 39.6667 30.5507 39.6667 29.6666C39.6667 28.7826 40.0179 27.9347 40.643 27.3096C41.2681 26.6845 42.1159 26.3333 43 26.3333C43.8841 26.3333 44.7319 26.6845 45.357 27.3096C45.9821 27.9347 46.3333 28.7826 46.3333 29.6666Z" fill="#2F80ED"/>
<circle cx="53" cy="53" r="51.5" stroke="#2F80ED" stroke-width="3"/>
</svg>
