<svg width="106" height="106" viewBox="0 0 106 106" fill="none" xmlns="http://www.w3.org/2000/svg">
<path d="M38.77 79H39.68V73.83L41.99 79H42.63L44.93 73.84V79H45.84V72.08H44.87L42.31 77.8L39.75 72.08H38.77V79ZM52.2433 73.52H51.3333V76.53C51.3333 77.71 50.7033 78.29 49.7633 78.29C48.8433 78.29 48.2333 77.72 48.2333 76.61V73.52H47.3333V76.73C47.3333 78.3 48.3233 79.08 49.5833 79.08C50.3133 79.08 50.9833 78.76 51.3333 78.19V79H52.2433V73.52ZM57.7198 77.51C57.6798 75.55 54.4998 76.26 54.4998 74.96C54.4998 74.52 54.8998 74.2 55.5698 74.2C56.2998 74.2 56.7198 74.6 56.7598 75.15H57.6698C57.6098 74.08 56.8098 73.43 55.5998 73.43C54.3798 73.43 53.5898 74.12 53.5898 74.96C53.5898 77 56.8298 76.29 56.8298 77.51C56.8298 77.96 56.4298 78.32 55.7098 78.32C54.9398 78.32 54.4698 77.92 54.4198 77.39H53.4798C53.5398 78.39 54.4398 79.09 55.7198 79.09C56.9298 79.09 57.7198 78.41 57.7198 77.51ZM59.0044 79H59.9144V73.52H59.0044V79ZM59.4744 72.63C59.8044 72.63 60.0744 72.36 60.0744 72.01C60.0744 71.66 59.8044 71.39 59.4744 71.39C59.1244 71.39 58.8544 71.66 58.8544 72.01C58.8544 72.36 59.1244 72.63 59.4744 72.63ZM61.1253 76.25C61.1253 77.99 62.2353 79.09 63.7953 79.09C65.1553 79.09 66.0453 78.33 66.3253 77.24H65.3453C65.1453 77.93 64.6053 78.32 63.7953 78.32C62.7953 78.32 62.0553 77.61 62.0553 76.25C62.0553 74.91 62.7953 74.2 63.7953 74.2C64.6053 74.2 65.1553 74.62 65.3453 75.28H66.3253C66.0453 74.13 65.1553 73.43 63.7953 73.43C62.2353 73.43 61.1253 74.53 61.1253 76.25Z" fill="#4F4F4F"/>
<path d="M67.3333 26.3333H47.3333C45.5 26.3333 44 27.8333 44 29.6666V49.6666C44 51.5 45.5 53 47.3333 53H67.3333C69.1667 53 70.6667 51.5 70.6667 49.6666V29.6666C70.6667 27.8333 69.1667 26.3333 67.3333 26.3333ZM64 34.6666H59V43.8333C59 44.9384 58.561 45.9982 57.7796 46.7796C56.9982 47.561 55.9384 48 54.8333 48C53.7283 48 52.6685 47.561 51.8871 46.7796C51.1057 45.9982 50.6667 44.9384 50.6667 43.8333C50.6667 42.7282 51.1057 41.6684 51.8871 40.887C52.6685 40.1056 53.7283 39.6666 54.8333 39.6666C55.7833 39.6666 56.6333 39.9833 57.3333 40.5166V31.3333H64V34.6666ZM40.6667 33H37.3333V56.3333C37.3333 58.1666 38.8333 59.6666 40.6667 59.6666H64V56.3333H40.6667V33Z" fill="#2F80ED"/>
<circle cx="53" cy="53" r="51.5" stroke="#2F80ED" stroke-width="3"/>
</svg>
