<svg width="106" height="106" viewBox="0 0 106 106" fill="none" xmlns="http://www.w3.org/2000/svg">
<path d="M56.8794 55.6588C62.0212 55.6588 66.1894 51.4777 66.1894 46.3201C66.1894 41.1624 62.0212 36.9813 56.8794 36.9813C51.7376 36.9813 47.5694 41.1624 47.5694 46.3201C47.5694 51.4777 51.7376 55.6588 56.8794 55.6588Z" fill="#2F80ED"/>
<path d="M69.7731 33.0763C69.7825 33.0312 69.8 32.0912 69.8 32.0912C69.8 31.7137 69.4956 31.4075 69.1188 31.4075H66.0962C65.7694 31.4075 65.5075 31.645 65.4431 31.9563L64.3913 28.4056C64.2319 28.0506 63.4506 27.4744 62.9819 27.3444C61.5506 26.9475 59.2138 26.75 56.8787 26.75C54.5425 26.75 52.2056 26.9475 50.7738 27.3444C50.3056 27.4744 49.5238 28.0506 49.365 28.4056L48.0525 32.8356H46.8931V32.04C46.8935 31.7015 46.7593 31.3766 46.5202 31.137C46.2812 30.8973 45.9567 30.7624 45.6181 30.7619H39.96C39.7924 30.762 39.6264 30.7952 39.4716 30.8596C39.3169 30.9239 39.1763 31.0181 39.0579 31.1368C38.9396 31.2555 38.8458 31.3964 38.7819 31.5514C38.718 31.7063 38.6853 31.8724 38.6856 32.04V32.8356H37.4375C35.6775 32.8356 34.25 34.2675 34.25 36.0325V53.7763C34.25 55.5406 35.6769 56.9725 37.4375 56.9725H49.5744C51.7202 58.4588 54.2691 59.2535 56.8794 59.25C59.5913 59.25 62.1069 58.4081 64.1838 56.9725H68.5625C70.3225 56.9725 71.75 55.5406 71.75 53.7763V36.0325C71.7502 35.3994 71.5624 34.7805 71.2105 34.2542C70.8585 33.7279 70.3583 33.3179 69.7731 33.0763ZM56.8794 58.0744C50.4169 58.0744 45.16 52.8019 45.16 46.32C45.16 39.8381 50.4169 34.565 56.8794 34.565C63.3406 34.565 68.5975 39.8381 68.5975 46.32C68.5975 52.8019 63.3406 58.0744 56.8794 58.0744Z" fill="#2F80ED"/>
<path d="M21.68 74.53V73.52H20.77V81.6H21.68V77.99C22.02 78.55 22.73 79.09 23.73 79.09C25.2 79.09 26.33 77.94 26.33 76.24C26.33 74.53 25.2 73.43 23.73 73.43C22.73 73.43 22.01 73.95 21.68 74.53ZM25.4 76.24C25.4 77.53 24.55 78.29 23.54 78.29C22.55 78.29 21.68 77.54 21.68 76.25C21.68 74.98 22.55 74.22 23.54 74.22C24.55 74.22 25.4 74.95 25.4 76.24ZM27.5278 79H28.4378V75.97C28.4378 74.79 29.0778 74.21 30.0078 74.21C30.9278 74.21 31.5378 74.78 31.5378 75.9V79H32.4378V75.77C32.4378 74.2 31.4678 73.42 30.2478 73.42C29.4778 73.42 28.7978 73.73 28.4378 74.31V71.6H27.5278V79ZM39.1243 76.25C39.1243 74.52 37.9143 73.43 36.3543 73.43C34.8043 73.43 33.5843 74.52 33.5843 76.25C33.5843 77.99 34.7643 79.09 36.3143 79.09C37.8743 79.09 39.1243 77.99 39.1243 76.25ZM34.5143 76.25C34.5143 74.87 35.3843 74.22 36.3443 74.22C37.2843 74.22 38.1943 74.87 38.1943 76.25C38.1943 77.64 37.2643 78.29 36.3143 78.29C35.3643 78.29 34.5143 77.64 34.5143 76.25ZM40.5208 77.5C40.5208 78.6 41.0708 79 42.0408 79H42.8608V78.23H42.1908C41.6308 78.23 41.4308 78.04 41.4308 77.5V74.27H42.8608V73.52H41.4308V72.14H40.5208V73.52H39.8108V74.27H40.5208V77.5ZM49.1634 76.25C49.1634 74.52 47.9534 73.43 46.3934 73.43C44.8434 73.43 43.6234 74.52 43.6234 76.25C43.6234 77.99 44.8034 79.09 46.3534 79.09C47.9134 79.09 49.1634 77.99 49.1634 76.25ZM44.5534 76.25C44.5534 74.87 45.4234 74.22 46.3834 74.22C47.3234 74.22 48.2334 74.87 48.2334 76.25C48.2334 77.64 47.3034 78.29 46.3534 78.29C45.4034 78.29 44.5534 77.64 44.5534 76.25ZM50.0198 76.24C50.0198 77.94 51.1498 79.09 52.6198 79.09C53.6198 79.09 54.3298 78.56 54.6598 77.97V79.12C54.6598 80.29 53.9298 80.91 52.9598 80.91C52.0598 80.91 51.4098 80.46 51.2098 79.8H50.3098C50.4898 80.97 51.5198 81.7 52.9598 81.7C54.5698 81.7 55.5798 80.63 55.5798 79.12V73.52H54.6598V74.52C54.3398 73.93 53.6198 73.43 52.6198 73.43C51.1498 73.43 50.0198 74.53 50.0198 76.24ZM54.6598 76.25C54.6598 77.54 53.7998 78.29 52.7998 78.29C51.7998 78.29 50.9498 77.53 50.9498 76.24C50.9498 74.95 51.7998 74.22 52.7998 74.22C53.7998 74.22 54.6598 74.98 54.6598 76.25ZM58.0277 76.02C58.0277 74.75 58.6877 74.36 59.5577 74.36H59.7977V73.42C58.9277 73.42 58.3377 73.8 58.0277 74.41V73.52H57.1177V79H58.0277V76.02ZM60.5081 76.24C60.5081 77.94 61.6381 79.09 63.0981 79.09C64.1081 79.09 64.8181 78.57 65.1481 77.98V79H66.0681V73.52H65.1481V74.52C64.8281 73.95 64.1281 73.43 63.1081 73.43C61.6381 73.43 60.5081 74.53 60.5081 76.24ZM65.1481 76.25C65.1481 77.54 64.2881 78.29 63.2881 78.29C62.2881 78.29 61.4381 77.53 61.4381 76.24C61.4381 74.95 62.2881 74.22 63.2881 74.22C64.2881 74.22 65.1481 74.98 65.1481 76.25ZM68.5159 74.53V73.52H67.6059V81.6H68.5159V77.99C68.8559 78.55 69.5659 79.09 70.5659 79.09C72.0359 79.09 73.1659 77.94 73.1659 76.24C73.1659 74.53 72.0359 73.43 70.5659 73.43C69.5659 73.43 68.8459 73.95 68.5159 74.53ZM72.2359 76.24C72.2359 77.53 71.3859 78.29 70.3759 78.29C69.3859 78.29 68.5159 77.54 68.5159 76.25C68.5159 74.98 69.3859 74.22 70.3759 74.22C71.3859 74.22 72.2359 74.95 72.2359 76.24ZM74.3638 79H75.2738V75.97C75.2738 74.79 75.9138 74.21 76.8438 74.21C77.7638 74.21 78.3738 74.78 78.3738 75.9V79H79.2738V75.77C79.2738 74.2 78.3038 73.42 77.0838 73.42C76.3138 73.42 75.6338 73.73 75.2738 74.31V71.6H74.3638V79ZM82.8402 77.96L81.1202 73.52H80.1102L82.3202 78.94L81.2402 81.58H82.1802L85.4802 73.52H84.5402L82.8402 77.96Z" fill="#4F4F4F"/>
<circle cx="53" cy="53" r="51.5" stroke="#2F80ED" stroke-width="3"/>
</svg>
