<svg width="171" height="17" viewBox="0 0 171 17" fill="none" xmlns="http://www.w3.org/2000/svg">
<path d="M1.352 7.756V3.64H0.0780001V14H1.352V12.586C1.828 13.426 2.822 14.126 4.222 14.126C6.28 14.126 7.862 12.516 7.862 10.136C7.862 7.742 6.294 6.202 4.222 6.202C2.864 6.202 1.842 6.902 1.352 7.756ZM6.56 10.136C6.56 11.942 5.37 13.006 3.956 13.006C2.57 13.006 1.352 11.956 1.352 10.15C1.352 8.372 2.57 7.308 3.956 7.308C5.37 7.308 6.56 8.33 6.56 10.136ZM12.8009 7.28C14.1169 7.28 15.2369 8.106 15.2229 9.604H10.3789C10.5189 8.106 11.5549 7.28 12.8009 7.28ZM16.3849 11.634H15.0129C14.7329 12.46 14.0049 13.048 12.8569 13.048C11.5549 13.048 10.4629 12.194 10.3649 10.64H16.4969C16.5249 10.374 16.5389 10.15 16.5389 9.87C16.5389 7.77 15.0829 6.202 12.8569 6.202C10.6169 6.202 9.06294 7.728 9.06294 10.15C9.06294 12.586 10.6729 14.126 12.8569 14.126C14.7609 14.126 15.9929 13.034 16.3849 11.634ZM18.2206 14H19.4946V9.758C19.4946 8.106 20.3906 7.294 21.6926 7.294C22.9806 7.294 23.8346 8.092 23.8346 9.66V14H25.0946V9.478C25.0946 7.28 23.7366 6.188 22.0286 6.188C20.9506 6.188 19.9986 6.622 19.4946 7.434V3.64H18.2206V14ZM26.6997 10.136C26.6997 12.516 28.2817 14.126 30.3257 14.126C31.7397 14.126 32.7337 13.398 33.1957 12.572V14H34.4837V6.328H33.1957V7.728C32.7477 6.93 31.7677 6.202 30.3397 6.202C28.2817 6.202 26.6997 7.742 26.6997 10.136ZM33.1957 10.15C33.1957 11.956 31.9917 13.006 30.5917 13.006C29.1917 13.006 28.0017 11.942 28.0017 10.136C28.0017 8.33 29.1917 7.308 30.5917 7.308C31.9917 7.308 33.1957 8.372 33.1957 10.15ZM42.2506 14H43.5106V9.478C43.5106 7.28 42.1526 6.188 40.3746 6.188C39.3386 6.188 38.4146 6.622 37.9106 7.42V6.328H36.6366V14H37.9106V9.758C37.9106 8.106 38.8066 7.294 40.1086 7.294C41.3966 7.294 42.2506 8.092 42.2506 9.66V14ZM45.1157 10.15C45.1157 12.586 46.6697 14.126 48.8537 14.126C50.7577 14.126 52.0037 13.062 52.3957 11.536H51.0237C50.7437 12.502 49.9877 13.048 48.8537 13.048C47.4537 13.048 46.4177 12.054 46.4177 10.15C46.4177 8.274 47.4537 7.28 48.8537 7.28C49.9877 7.28 50.7577 7.868 51.0237 8.792H52.3957C52.0037 7.182 50.7577 6.202 48.8537 6.202C46.6697 6.202 45.1157 7.742 45.1157 10.15ZM57.3576 7.28C58.6736 7.28 59.7936 8.106 59.7796 9.604H54.9356C55.0756 8.106 56.1116 7.28 57.3576 7.28ZM60.9416 11.634H59.5696C59.2896 12.46 58.5616 13.048 57.4136 13.048C56.1116 13.048 55.0196 12.194 54.9216 10.64H61.0536C61.0816 10.374 61.0956 10.15 61.0956 9.87C61.0956 7.77 59.6396 6.202 57.4136 6.202C55.1736 6.202 53.6196 7.728 53.6196 10.15C53.6196 12.586 55.2296 14.126 57.4136 14.126C59.3176 14.126 60.5496 13.034 60.9416 11.634ZM64.0232 13.216C64.0232 12.726 63.6452 12.348 63.1832 12.348C62.6932 12.348 62.3152 12.726 62.3152 13.216C62.3152 13.706 62.6932 14.084 63.1832 14.084C63.6452 14.084 64.0232 13.706 64.0232 13.216ZM65.2407 10.15C65.2407 12.586 66.7947 14.126 68.9787 14.126C70.8827 14.126 72.1287 13.062 72.5207 11.536H71.1487C70.8687 12.502 70.1127 13.048 68.9787 13.048C67.5787 13.048 66.5427 12.054 66.5427 10.15C66.5427 8.274 67.5787 7.28 68.9787 7.28C70.1127 7.28 70.8827 7.868 71.1487 8.792H72.5207C72.1287 7.182 70.8827 6.202 68.9787 6.202C66.7947 6.202 65.2407 7.742 65.2407 10.15ZM81.5006 10.15C81.5006 7.728 79.8066 6.202 77.6226 6.202C75.4526 6.202 73.7446 7.728 73.7446 10.15C73.7446 12.586 75.3966 14.126 77.5666 14.126C79.7506 14.126 81.5006 12.586 81.5006 10.15ZM75.0466 10.15C75.0466 8.218 76.2646 7.308 77.6086 7.308C78.9246 7.308 80.1986 8.218 80.1986 10.15C80.1986 12.096 78.8966 13.006 77.5666 13.006C76.2366 13.006 75.0466 12.096 75.0466 10.15ZM94.2497 14H95.5097V9.478C95.5097 7.28 94.1517 6.188 92.4017 6.188C91.2257 6.188 90.1337 6.79 89.6857 7.896C89.1817 6.748 88.1317 6.188 86.8717 6.188C85.8637 6.188 84.9537 6.622 84.4497 7.434V6.328H83.1757V14H84.4497V9.772C84.4497 8.12 85.3317 7.294 86.6197 7.294C87.8797 7.294 88.7197 8.092 88.7197 9.66V14H89.9797V9.772C89.9797 8.12 90.8617 7.294 92.1497 7.294C93.4097 7.294 94.2497 8.092 94.2497 9.66V14ZM97.2635 16.38H98.5235L102.359 0.812H101.085L97.2635 16.38ZM104.258 14H105.532V10.612L108.542 14H110.278L106.652 10.15L110.264 6.328H108.486L105.532 9.73V3.64H104.258V14ZM118.267 6.328H116.993V10.542C116.993 12.194 116.111 13.006 114.795 13.006C113.507 13.006 112.653 12.208 112.653 10.654V6.328H111.393V10.822C111.393 13.02 112.779 14.112 114.543 14.112C115.565 14.112 116.503 13.664 116.993 12.866V14H118.267V6.328ZM121.692 9.828C121.692 8.05 122.616 7.504 123.834 7.504H124.17V6.188C122.952 6.188 122.126 6.72 121.692 7.574V6.328H120.418V14H121.692V9.828ZM125.921 11.9C125.921 13.44 126.691 14 128.049 14H129.197V12.922H128.258C127.475 12.922 127.195 12.656 127.195 11.9V7.378H129.197V6.328H127.195V4.396H125.921V6.328H124.927V7.378H125.921V11.9ZM132.238 14H133.554L135.402 7.91L137.25 14H138.566L140.96 6.328H139.7L137.964 12.782L136.102 6.328H134.8L132.896 12.768L131.132 6.328H129.83L132.238 14ZM145.486 7.28C146.802 7.28 147.922 8.106 147.908 9.604H143.064C143.204 8.106 144.24 7.28 145.486 7.28ZM149.07 11.634H147.698C147.418 12.46 146.69 13.048 145.542 13.048C144.24 13.048 143.148 12.194 143.05 10.64H149.182C149.21 10.374 149.224 10.15 149.224 9.87C149.224 7.77 147.768 6.202 145.542 6.202C143.302 6.202 141.748 7.728 141.748 10.15C141.748 12.586 143.358 14.126 145.542 14.126C147.446 14.126 148.678 13.034 149.07 11.634ZM150.906 14H152.18V3.64H150.906V14ZM154.351 14H155.625V3.64H154.351V14ZM161.059 7.28C162.375 7.28 163.495 8.106 163.481 9.604H158.637C158.777 8.106 159.813 7.28 161.059 7.28ZM164.643 11.634H163.271C162.991 12.46 162.263 13.048 161.115 13.048C159.813 13.048 158.721 12.194 158.623 10.64H164.755C164.783 10.374 164.797 10.15 164.797 9.87C164.797 7.77 163.341 6.202 161.115 6.202C158.875 6.202 157.321 7.728 157.321 10.15C157.321 12.586 158.931 14.126 161.115 14.126C163.019 14.126 164.251 13.034 164.643 11.634ZM167.752 9.828C167.752 8.05 168.676 7.504 169.894 7.504H170.23V6.188C169.012 6.188 168.186 6.72 167.752 7.574V6.328H166.478V14H167.752V9.828Z" fill="#2D9CDB"/>
</svg>
