<svg width="50" height="56" viewBox="0 0 50 56" fill="none" xmlns="http://www.w3.org/2000/svg">
<g filter="url(#filter0_d)">
<path d="M35.4167 31.7604V46.0771C35.4167 46.2614 35.3678 46.4424 35.2751 46.6016C35.1823 46.7609 35.0489 46.8927 34.8886 46.9835C34.7282 47.0744 34.5467 47.1211 34.3624 47.1189C34.1781 47.1166 33.9977 47.0655 33.8396 46.9708L25 41.6666L16.1604 46.9708C16.0022 47.0656 15.8216 47.1167 15.6371 47.1189C15.4526 47.121 15.2709 47.0741 15.1105 46.983C14.9501 46.8919 14.8168 46.7598 14.7241 46.6003C14.6315 46.4407 14.5829 46.2594 14.5833 46.075V31.7625C11.8878 29.6043 9.92915 26.6622 8.97804 23.3428C8.02693 20.0233 8.13033 16.4904 9.27394 13.2322C10.4176 9.97404 12.5449 7.15153 15.362 5.15471C18.1792 3.1579 21.547 2.08539 25 2.08539C28.453 2.08539 31.8208 3.1579 34.638 5.15471C37.4551 7.15153 39.5824 9.97404 40.7261 13.2322C41.8697 16.4904 41.9731 20.0233 41.022 23.3428C40.0709 26.6622 38.1122 29.6043 35.4167 31.7625V31.7604ZM25 31.25C28.3152 31.25 31.4946 29.933 33.8388 27.5888C36.183 25.2446 37.5 22.0652 37.5 18.75C37.5 15.4348 36.183 12.2553 33.8388 9.91113C31.4946 7.56693 28.3152 6.24997 25 6.24997C21.6848 6.24997 18.5054 7.56693 16.1612 9.91113C13.817 12.2553 12.5 15.4348 12.5 18.75C12.5 22.0652 13.817 25.2446 16.1612 27.5888C18.5054 29.933 21.6848 31.25 25 31.25ZM25 27.0833C22.7899 27.0833 20.6702 26.2053 19.1074 24.6425C17.5446 23.0797 16.6667 20.9601 16.6667 18.75C16.6667 16.5398 17.5446 14.4202 19.1074 12.8574C20.6702 11.2946 22.7899 10.4166 25 10.4166C27.2101 10.4166 29.3298 11.2946 30.8926 12.8574C32.4554 14.4202 33.3333 16.5398 33.3333 18.75C33.3333 20.9601 32.4554 23.0797 30.8926 24.6425C29.3298 26.2053 27.2101 27.0833 25 27.0833Z" fill="#2F80ED"/>
</g>
<defs>
<filter id="filter0_d" x="-4" y="0" width="58" height="58" filterUnits="userSpaceOnUse" color-interpolation-filters="sRGB">
<feFlood flood-opacity="0" result="BackgroundImageFix"/>
<feColorMatrix in="SourceAlpha" type="matrix" values="0 0 0 0 0 0 0 0 0 0 0 0 0 0 0 0 0 0 127 0"/>
<feOffset dy="4"/>
<feGaussianBlur stdDeviation="2"/>
<feColorMatrix type="matrix" values="0 0 0 0 0 0 0 0 0 0 0 0 0 0 0 0 0 0 0.25 0"/>
<feBlend mode="normal" in2="BackgroundImageFix" result="effect1_dropShadow"/>
<feBlend mode="normal" in="SourceGraphic" in2="effect1_dropShadow" result="shape"/>
</filter>
</defs>
</svg>
