<svg width="25" height="25" viewBox="0 0 25 25" fill="none" xmlns="http://www.w3.org/2000/svg">
<path d="M18.75 12.5C17.5944 12.5 16.4144 12.6139 15.21 12.8418C14.7705 11.5885 14.2741 10.4167 13.7207 9.32617C15.2344 8.61003 16.5812 7.70671 17.7612 6.61621C18.9412 5.52572 19.873 4.30501 20.5566 2.9541C21.9401 4.12598 23.0265 5.54199 23.8159 7.20215C24.6053 8.8623 25 10.6283 25 12.5C25 12.8092 24.9837 13.1755 24.9512 13.5986C22.9655 12.8662 20.8984 12.5 18.75 12.5ZM12.9639 7.95898C11.2223 4.94792 9.14714 2.76693 6.73828 1.41602C8.54492 0.472005 10.4655 0 12.5 0C14.9577 0 17.2201 0.667318 19.2871 2.00195C18.6686 3.27148 17.8182 4.41895 16.7358 5.44434C15.6535 6.46973 14.3962 7.30794 12.9639 7.95898ZM11.5479 8.49609C9.83887 9.08203 8.07292 9.375 6.25 9.375C4.36198 9.375 2.51465 9.04948 0.708008 8.39844C1.57064 5.92448 3.0599 3.91439 5.17578 2.36816C7.64974 3.47493 9.77376 5.51758 11.5479 8.49609ZM6.25 10.9375C8.36589 10.9375 10.3841 10.5876 12.3047 9.8877C12.8255 10.9294 13.2975 12.0361 13.7207 13.208C11.4095 13.8753 9.39534 14.9495 7.67822 16.4307C5.9611 17.9118 4.71191 19.6289 3.93066 21.582C2.69368 20.4264 1.72933 19.0633 1.0376 17.4927C0.345866 15.922 0 14.2578 0 12.5C0 11.6211 0.0895182 10.7503 0.268555 9.8877C2.23796 10.5876 4.23177 10.9375 6.25 10.9375ZM14.1846 14.6973C15.096 17.7897 15.568 21.0856 15.6006 24.585C14.5589 24.8617 13.5254 25 12.5 25C9.83073 25 7.4056 24.2106 5.22461 22.6318C5.8431 20.7764 6.9458 19.1488 8.53271 17.749C10.1196 16.3493 12.0036 15.332 14.1846 14.6973ZM15.6982 14.3555C16.7236 14.1602 17.7409 14.0625 18.75 14.0625C20.8008 14.0625 22.7865 14.4368 24.707 15.1855C24.2676 17.2038 23.3765 19.0023 22.0337 20.5811C20.6909 22.1598 19.0674 23.3317 17.1631 24.0967C17.0817 20.6299 16.5934 17.3828 15.6982 14.3555Z" fill="#2F80ED"/>
</svg>
